<svg width="181" height="136" viewBox="0 0 181 136" fill="none" xmlns="http://www.w3.org/2000/svg">
<path d="M57.6895 48.0449C73.3361 24.7045 107.663 24.7045 123.31 48.0449L140.713 74.0049C158.305 100.248 139.497 135.5 107.902 135.5H73.0967C41.5024 135.5 22.6946 100.248 40.2871 74.0049L57.6895 48.0449Z" fill="url(#paint0_linear_1235_485)" stroke="#FFBDBD"/>
<path d="M65.416 77.204H68.98V78.176C68.98 79.952 68.728 81.644 68.224 83.252C67.72 84.86 66.928 86.276 65.848 87.5C64.792 88.724 63.376 89.66 61.6 90.308L59.44 86.78C60.832 86.252 61.96 85.544 62.824 84.656C63.712 83.744 64.36 82.736 64.768 81.632C65.2 80.504 65.416 79.352 65.416 78.176V77.204ZM66.424 77.204H69.952V78.176C69.952 79.304 70.156 80.384 70.564 81.416C70.996 82.448 71.656 83.384 72.544 84.224C73.432 85.04 74.56 85.688 75.928 86.168L73.84 89.732C72.088 89.108 70.66 88.22 69.556 87.068C68.476 85.892 67.684 84.548 67.18 83.036C66.676 81.5 66.424 79.88 66.424 78.176V77.204ZM60.34 74.504H74.956V78.248H60.34V74.504ZM65.416 71.264H69.952V76.412H65.416V71.264ZM83.308 70.868H87.88V93.44H83.308V70.868ZM79.492 78.788H84.748V82.64H79.492V78.788ZM76.396 71.408H80.86V90.488H76.396V71.408ZM74.02 91.856H78.088V92.36C78.088 93.824 77.8 95.204 77.224 96.5C76.648 97.772 75.808 98.924 74.704 99.956C73.624 100.988 72.28 101.852 70.672 102.548C69.064 103.268 67.216 103.784 65.128 104.096L63.4 100.352C64.84 100.16 66.124 99.884 67.252 99.524C68.404 99.14 69.4 98.684 70.24 98.156C71.08 97.604 71.776 97.016 72.328 96.392C72.904 95.768 73.324 95.12 73.588 94.448C73.876 93.752 74.02 93.056 74.02 92.36V91.856ZM74.668 91.856H78.772V92.36C78.772 93.056 78.904 93.752 79.168 94.448C79.432 95.12 79.84 95.768 80.392 96.392C80.968 97.016 81.676 97.604 82.516 98.156C83.356 98.684 84.34 99.14 85.468 99.524C86.62 99.884 87.916 100.16 89.356 100.352L87.628 104.096C85.564 103.784 83.716 103.268 82.084 102.548C80.476 101.852 79.12 100.988 78.016 99.956C76.912 98.924 76.072 97.772 75.496 96.5C74.944 95.204 74.668 93.824 74.668 92.36V91.856ZM96.4092 71.804H101.125V74.612H114.157V71.804H118.909V84.44H96.4092V71.804ZM101.125 78.176V80.696H114.157V78.176H101.125ZM92.5572 87.068H122.725V90.848H92.5572V87.068ZM105.229 82.928H110.017V87.896H105.229V82.928ZM105.193 92.504H109.297V93.08C109.297 94.496 109.009 95.816 108.433 97.04C107.881 98.24 107.053 99.32 105.949 100.28C104.845 101.24 103.477 102.044 101.845 102.692C100.213 103.364 98.3532 103.832 96.2652 104.096L94.5732 100.424C96.4212 100.208 98.0172 99.86 99.3612 99.38C100.705 98.9 101.809 98.324 102.673 97.652C103.537 96.98 104.173 96.26 104.581 95.492C104.989 94.7 105.193 93.896 105.193 93.08V92.504ZM105.949 92.504H110.053V93.08C110.053 93.896 110.257 94.7 110.665 95.492C111.097 96.26 111.745 96.98 112.609 97.652C113.473 98.324 114.565 98.9 115.885 99.38C117.229 99.86 118.825 100.208 120.673 100.424L119.017 104.096C116.905 103.832 115.033 103.364 113.401 102.692C111.793 102.044 110.437 101.24 109.333 100.28C108.229 99.32 107.389 98.24 106.813 97.04C106.237 95.816 105.949 94.496 105.949 93.08V92.504Z" fill="white"/>
<defs>
<linearGradient id="paint0_linear_1235_485" x1="90.5" y1="1.39698e-06" x2="90.5" y2="180" gradientUnits="userSpaceOnUse">
<stop offset="0.379855" stop-color="#FFE48F"/>
<stop offset="0.889483" stop-color="#FFA8D6" stop-opacity="0.98"/>
</linearGradient>
</defs>
</svg>
