<svg width="246" height="322" viewBox="0 0 246 322" fill="none" xmlns="http://www.w3.org/2000/svg">
<mask id="mask0_231_438" style="mask-type:alpha" maskUnits="userSpaceOnUse" x="111" y="118" width="100" height="100">
<rect x="111" y="118" width="100" height="100" rx="50" fill="#D9D9D9"/>
</mask>
<g mask="url(#mask0_231_438)">
<path d="M160.576 239.267C202.071 239.267 235.71 212.837 235.71 180.233C235.71 147.63 202.071 121.2 160.576 121.2C119.081 121.2 85.4431 147.63 85.4431 180.233C85.4431 212.837 119.081 239.267 160.576 239.267Z" fill="#FFC107"/>
<path d="M117.643 153.4C146.265 142.667 174.888 142.667 203.51 153.4C174.888 164.133 146.265 164.133 117.643 153.4Z" fill="black"/>
<path d="M112.276 185.6C144.476 174.867 176.676 174.867 208.876 185.6C176.676 196.333 144.476 196.333 112.276 185.6Z" fill="black"/>
<path d="M117.643 217.8C146.265 207.067 174.888 207.067 203.51 217.8C174.888 228.533 146.265 228.533 117.643 217.8Z" fill="black"/>
<path d="M139.11 153.4C148.002 153.4 155.21 146.192 155.21 137.3C155.21 128.408 148.002 121.2 139.11 121.2C130.218 121.2 123.01 128.408 123.01 137.3C123.01 146.192 130.218 153.4 139.11 153.4Z" fill="white"/>
<path d="M182.043 153.4C190.935 153.4 198.143 146.192 198.143 137.3C198.143 128.408 190.935 121.2 182.043 121.2C173.151 121.2 165.943 128.408 165.943 137.3C165.943 146.192 173.151 153.4 182.043 153.4Z" fill="white"/>
<path d="M139.11 144.813C143.259 144.813 146.623 141.449 146.623 137.3C146.623 133.15 143.259 129.787 139.11 129.787C134.96 129.787 131.596 133.15 131.596 137.3C131.596 141.449 134.96 144.813 139.11 144.813Z" fill="black"/>
<path d="M182.043 144.813C186.193 144.813 189.556 141.449 189.556 137.3C189.556 133.15 186.193 129.787 182.043 129.787C177.894 129.787 174.53 133.15 174.53 137.3C174.53 141.449 177.894 144.813 182.043 144.813Z" fill="black"/>
<path d="M136.963 136.763C138.445 136.763 139.646 135.562 139.646 134.08C139.646 132.598 138.445 131.397 136.963 131.397C135.481 131.397 134.28 132.598 134.28 134.08C134.28 135.562 135.481 136.763 136.963 136.763Z" fill="white"/>
<path d="M179.896 136.763C181.378 136.763 182.58 135.562 182.58 134.08C182.58 132.598 181.378 131.397 179.896 131.397C178.415 131.397 177.213 132.598 177.213 134.08C177.213 135.562 178.415 136.763 179.896 136.763Z" fill="white"/>
<path opacity="0.6" d="M123.01 156.62C128.938 156.62 133.743 153.737 133.743 150.18C133.743 146.623 128.938 143.74 123.01 143.74C117.082 143.74 112.276 146.623 112.276 150.18C112.276 153.737 117.082 156.62 123.01 156.62Z" fill="#FF7FAA"/>
<path opacity="0.6" d="M198.143 156.62C204.071 156.62 208.876 153.737 208.876 150.18C208.876 146.623 204.071 143.74 198.143 143.74C192.215 143.74 187.41 146.623 187.41 150.18C187.41 153.737 192.215 156.62 198.143 156.62Z" fill="#FF7FAA"/>
<path d="M144.476 121.2C137.321 106.889 130.165 97.9445 123.01 94.3667" stroke="black" stroke-width="2.5"/>
<path d="M176.677 121.2C183.832 106.889 190.988 97.9445 198.143 94.3667" stroke="black" stroke-width="2.5"/>
</g>
</svg>
