<svg width="2263" height="827" viewBox="0 0 2263 827" fill="none" xmlns="http://www.w3.org/2000/svg">
<path d="M120.097 122.024L239.399 84.715L218.443 17.7032L150.313 0.731102L120.097 122.024ZM212.667 418.033L331.97 380.724L212.667 418.033ZM350.686 585.654L408.072 696.703H408.072L350.686 585.654ZM456.728 530.855L399.342 419.807L399.342 419.807L456.728 530.855ZM562.77 476.057L620.156 587.105L620.156 587.105L562.77 476.057ZM687.725 496.151L781.508 413.509L687.725 496.151ZM761.496 579.866L667.713 662.509L761.496 579.866ZM835.267 663.582L929.05 580.939V580.939L835.267 663.582ZM954.681 690.817L1006.35 804.637L1006.35 804.636L954.681 690.817ZM1052.75 646.294L1001.08 532.475L1001.08 532.475L1052.75 646.294ZM1150.82 601.771L1202.49 715.591V715.591L1150.82 601.771ZM1296.25 581.638L1278.94 705.433L1296.25 581.638ZM1407.46 597.187L1424.77 473.391L1407.46 597.187ZM1518.66 612.736L1501.35 736.532L1518.66 612.736ZM1637.73 554.723L1744.57 619.601L1744.57 619.601L1637.73 554.723ZM1697.86 455.692L1591.02 390.814L1591.02 390.815L1697.86 455.692ZM1757.99 356.66L1864.84 421.538V421.538L1757.99 356.66ZM1858.7 344.363L1945.23 254.159L1945.23 254.159L1858.7 344.363ZM1943.48 425.698L1856.95 515.902V515.902L1943.48 425.698ZM2028.27 507.034L2114.8 416.83V416.83L2028.27 507.034ZM2098.11 511.371L2220.46 536.996V536.996L2098.11 511.371ZM2113.84 436.277L2236.19 461.902L2236.2 461.857L2236.21 461.811L2113.84 436.277ZM2140.4 309.006L2132.47 184.258L2037.48 190.294L2018.04 283.473L2140.4 309.006ZM120 122L89.7843 243.293L89.8813 243.317L120.097 122.024L150.313 0.731102L150.216 0.706924L120 122ZM120.097 122.024L0.794777 159.333L93.3651 455.343L212.667 418.033L331.97 380.724L239.399 84.715L120.097 122.024ZM212.667 418.033L93.3651 455.343C115.823 527.154 143.788 594.819 182.839 642.245C203.102 666.855 233.454 694.771 276.279 708.495C323.345 723.578 369.742 716.511 408.072 696.703L350.686 585.654L293.3 474.606C307.067 467.491 329.29 462.96 352.573 470.421C371.615 476.523 378.574 486.661 375.834 483.333C373.526 480.53 367.462 471.831 358.954 453.357C350.706 435.449 341.609 411.547 331.97 380.724L212.667 418.033ZM350.686 585.654L408.072 696.703L514.114 641.904L456.728 530.855L399.342 419.807L293.3 474.606L350.686 585.654ZM456.728 530.855L514.114 641.904L620.156 587.105L562.77 476.057L505.384 365.008L399.342 419.807L456.728 530.855ZM562.77 476.057L620.156 587.105C628.325 582.884 623.739 587.502 611.007 585.454C604.958 584.482 599.9 582.378 596.395 580.276C593.155 578.333 592.501 577.158 593.942 578.794L687.725 496.151L781.508 413.509C749.715 377.43 706.181 347.548 650.701 338.626C596.318 329.88 546.342 343.842 505.384 365.008L562.77 476.057ZM687.725 496.151L593.942 578.794L667.713 662.509L761.496 579.866L855.279 497.224L781.508 413.509L687.725 496.151ZM761.496 579.866L667.713 662.509L741.484 746.224L835.267 663.582L929.05 580.939L855.279 497.224L761.496 579.866ZM835.267 663.582L741.484 746.224C771.267 780.022 811.403 809.59 862.957 821.348C915.005 833.219 964.406 823.681 1006.35 804.637L954.681 690.817L903.008 576.997C900.998 577.91 901.728 577.276 904.88 576.849C908.282 576.388 913.111 576.367 918.548 577.607C930.298 580.287 933.443 585.924 929.05 580.939L835.267 663.582ZM954.681 690.817L1006.35 804.636L1104.42 760.114L1052.75 646.294L1001.08 532.475L903.008 576.997L954.681 690.817ZM1052.75 646.294L1104.42 760.114L1202.49 715.591L1150.82 601.771L1099.15 487.952L1001.08 532.475L1052.75 646.294ZM1150.82 601.771L1202.49 715.591C1225.4 705.193 1249.84 701.365 1278.94 705.433L1296.25 581.638L1313.56 457.842C1239.62 447.503 1167.11 457.097 1099.15 487.952L1150.82 601.771ZM1296.25 581.638L1278.94 705.433L1390.15 720.983L1407.46 597.187L1424.77 473.391L1313.56 457.842L1296.25 581.638ZM1407.46 597.187L1390.15 720.983L1501.35 736.532L1518.66 612.736L1535.97 488.941L1424.77 473.391L1407.46 597.187ZM1518.66 612.736L1501.35 736.532C1547.25 742.95 1595.87 738.393 1641.82 716.007C1687.48 693.762 1720.9 658.587 1744.57 619.601L1637.73 554.723L1530.88 489.846C1528.71 493.425 1527.5 494.509 1527.79 494.23C1527.94 494.086 1528.41 493.654 1529.23 493.078C1530.05 492.497 1531.09 491.863 1532.32 491.265C1533.55 490.665 1534.78 490.192 1535.95 489.845C1537.11 489.499 1538.02 489.331 1538.6 489.254C1539.77 489.099 1539.08 489.376 1535.97 488.941L1518.66 612.736ZM1637.73 554.723L1744.57 619.601L1804.71 520.569L1697.86 455.692L1591.02 390.815L1530.88 489.846L1637.73 554.723ZM1697.86 455.692L1804.71 520.569L1864.84 421.538L1757.99 356.66L1651.15 291.783L1591.02 390.814L1697.86 455.692ZM1757.99 356.66L1864.84 421.538C1870.61 412.042 1858.31 438.482 1819.22 443.255C1780.91 447.932 1763.24 426.006 1772.16 434.567L1858.7 344.363L1945.23 254.159C1914.88 225.039 1860.78 186.322 1788.91 195.098C1716.25 203.971 1673.24 255.399 1651.15 291.783L1757.99 356.66ZM1858.7 344.363L1772.16 434.567L1856.95 515.902L1943.48 425.698L2030.02 335.495L1945.23 254.159L1858.7 344.363ZM1943.48 425.698L1856.95 515.902L1941.73 597.238L2028.27 507.034L2114.8 416.83L2030.02 335.495L1943.48 425.698ZM2028.27 507.034L1941.73 597.238C1955.12 610.078 1970.81 623.448 1988.45 634.48C2004.66 644.618 2032.16 658.948 2067.44 661.138C2109.56 663.754 2151.55 648.125 2181.79 615.141C2207.1 587.533 2216.43 556.227 2220.46 536.996L2098.11 511.371L1975.77 485.747C1976.15 483.91 1979.84 465.47 1997.51 446.197C2020.11 421.549 2052.46 409.726 2082.94 411.619C2106.58 413.087 2120.44 422.164 2121.01 422.52C2123.01 423.771 2121.06 422.83 2114.8 416.83L2028.27 507.034ZM2098.11 511.371L2220.46 536.996L2236.19 461.902L2113.84 436.277L1991.5 410.653L1975.77 485.747L2098.11 511.371ZM2113.84 436.277L2236.21 461.811L2262.76 334.54L2140.4 309.006L2018.04 283.473L1991.48 410.744L2113.84 436.277ZM2140.4 309.006L2148.33 433.755L2148.43 433.748L2140.5 309L2132.57 184.252L2132.47 184.258L2140.4 309.006Z" fill="url(#paint0_linear_1037_446)" fill-opacity="0.9"/>
<defs>
<linearGradient id="paint0_linear_1037_446" x1="303" y1="118.5" x2="2017" y2="118.5" gradientUnits="userSpaceOnUse">
<stop offset="2.52363e-05" stop-color="#FFC400"/>
<stop offset="0.235608" stop-color="#FFD857"/>
<stop offset="1" stop-color="#FF9830"/>
</linearGradient>
</defs>
</svg>
