<?xml version="1.0" standalone="no"?>
<!DOCTYPE svg PUBLIC "-//W3C//DTD SVG 20010904//EN"
 "http://www.w3.org/TR/2001/REC-SVG-20010904/DTD/svg10.dtd">
<svg version="1.0" xmlns="http://www.w3.org/2000/svg"
 width="211.000000pt" height="79.000000pt" viewBox="0 0 211.000000 79.000000"
 preserveAspectRatio="xMidYMid meet">

<g transform="translate(0.000000,79.000000) scale(0.100000,-0.100000)"
fill="#000000" stroke="none">
<path d="M438 783 c7 -3 16 -2 19 1 4 3 -2 6 -13 5 -11 0 -14 -3 -6 -6z"/>
<path d="M510 780 c31 -5 37 -8 20 -10 -17 -2 -11 -5 20 -10 39 -6 35 -7 -40
-10 -75 -3 -79 -4 -40 -10 31 -5 37 -8 20 -10 -17 -2 -11 -5 20 -10 40 -6 35
-7 -40 -10 l-85 -3 65 -7 c36 -4 54 -8 40 -10 -18 -2 -12 -5 20 -10 39 -6 35
-7 -40 -10 -75 -3 -79 -4 -40 -10 31 -5 37 -8 20 -10 -17 -2 -11 -5 20 -10 40
-6 35 -7 -40 -10 l-85 -3 65 -7 c65 -6 65 -6 20 -11 -43 -5 -43 -6 18 -9 34
-1 74 -3 90 -3 23 -1 32 -11 65 -74 l37 -73 -35 -71 -36 -70 -84 2 c-47 1 -82
6 -79 10 3 5 -3 22 -13 39 -17 29 -19 30 -93 28 l-75 -1 65 -7 c62 -6 63 -7
20 -10 -43 -3 -42 -4 20 -10 63 -6 62 -7 -40 -10 -102 -3 -103 -4 -40 -10 62
-6 63 -7 20 -10 -43 -3 -42 -4 20 -10 l65 -7 -85 -3 -85 -3 65 -7 c62 -6 63
-7 20 -10 -43 -3 -42 -4 20 -10 63 -6 62 -7 -40 -10 -102 -3 -103 -4 -40 -10
62 -6 63 -7 20 -10 -43 -3 -42 -4 20 -10 l65 -7 -85 -3 -85 -3 65 -7 c62 -6
63 -7 20 -10 -43 -3 -42 -4 20 -10 63 -6 62 -7 -40 -10 -102 -3 -103 -4 -40
-10 62 -6 63 -7 20 -10 -43 -3 -42 -4 20 -10 l65 -7 -85 -3 -85 -3 65 -7 c62
-6 63 -7 20 -10 -43 -3 -42 -4 20 -10 63 -6 62 -7 -40 -10 -102 -3 -103 -4
-40 -10 62 -6 63 -7 20 -10 -43 -3 -42 -4 20 -10 l65 -7 -85 -3 -85 -3 65 -7
c62 -6 63 -7 20 -10 -43 -3 -42 -4 20 -10 63 -6 62 -7 -40 -10 -100 -3 -102
-4 -40 -10 65 -6 65 -6 20 -11 -25 -3 415 -6 978 -7 l1022 -2 0 395 0 395
-822 -2 c-453 0 -803 -4 -778 -8z m37 -46 c-3 -3 -12 -4 -19 -1 -8 3 -5 6 6 6
11 1 17 -2 13 -5z m0 -100 c-3 -3 -12 -4 -19 -1 -8 3 -5 6 6 6 11 1 17 -2 13
-5z m693 -103 c0 -27 3 -29 36 -28 47 1 74 -30 74 -85 0 -54 -38 -93 -82 -84
-17 3 -43 6 -59 6 l-29 0 0 110 0 110 30 0 c26 0 30 -3 30 -29z m-123 -31 c31
-11 53 -45 53 -80 0 -18 -7 -20 -56 -20 -49 0 -55 -2 -44 -15 9 -11 17 -12 30
-5 24 13 70 13 70 1 0 -5 -12 -19 -27 -31 -22 -17 -37 -21 -66 -17 -48 7 -65
21 -73 63 -8 45 11 91 45 103 35 13 34 13 68 1z m386 -18 c10 -9 17 -29 17
-49 l0 -33 -50 0 c-27 0 -50 -4 -50 -9 0 -13 28 -22 35 -11 10 16 65 12 65 -4
0 -21 -25 -37 -67 -43 -56 -7 -93 24 -93 81 0 69 35 100 100 88 14 -3 33 -12
43 -20z m170 1 c10 -9 17 -30 17 -50 l0 -33 -50 0 c-27 0 -50 -4 -50 -9 0 -13
28 -22 35 -11 4 6 20 10 36 10 24 0 30 -4 27 -17 -9 -46 -113 -54 -143 -10
-19 28 -19 86 0 114 25 35 91 38 128 6z m-852 -18 c6 -29 8 -27 23 18 3 11 16
17 35 17 25 0 30 -5 38 -37 l10 -38 8 38 c6 32 11 37 36 37 34 0 33 4 11 -85
-17 -67 -20 -70 -50 -73 -22 -2 -34 1 -37 12 -16 50 -18 52 -28 19 -8 -28 -15
-33 -41 -33 -31 0 -32 1 -53 81 l-21 80 31 -3 c26 -2 33 -8 38 -33z"/>
<path d="M1244 446 c-10 -26 0 -61 19 -64 21 -4 31 19 23 53 -7 27 -33 34 -42
11z"/>
<path d="M1065 450 c-4 -6 5 -10 20 -10 15 0 24 4 20 10 -3 6 -12 10 -20 10
-8 0 -17 -4 -20 -10z"/>
<path d="M1420 450 c0 -5 9 -10 20 -10 11 0 20 5 20 10 0 6 -9 10 -20 10 -11
0 -20 -4 -20 -10z"/>
<path d="M1595 450 c-4 -6 5 -10 20 -10 15 0 24 4 20 10 -3 6 -12 10 -20 10
-8 0 -17 -4 -20 -10z"/>
<path d="M478 763 c7 -3 16 -2 19 1 4 3 -2 6 -13 5 -11 0 -14 -3 -6 -6z"/>
<path d="M398 743 c7 -3 16 -2 19 1 4 3 -2 6 -13 5 -11 0 -14 -3 -6 -6z"/>
<path d="M438 683 c7 -3 16 -2 19 1 4 3 -2 6 -13 5 -11 0 -14 -3 -6 -6z"/>
<path d="M358 663 c7 -3 16 -2 19 1 4 3 -2 6 -13 5 -11 0 -14 -3 -6 -6z"/>
<path d="M398 643 c7 -3 16 -2 19 1 4 3 -2 6 -13 5 -11 0 -14 -3 -6 -6z"/>
<path d="M338 583 c18 -2 45 -2 60 0 15 2 0 4 -33 4 -33 0 -45 -2 -27 -4z"/>
<path d="M333 543 c15 -2 37 -2 50 0 12 2 0 4 -28 4 -27 0 -38 -2 -22 -4z"/>
<path d="M358 523 c7 -3 16 -2 19 1 4 3 -2 6 -13 5 -11 0 -14 -3 -6 -6z"/>
<path d="M278 503 c7 -3 16 -2 19 1 4 3 -2 6 -13 5 -11 0 -14 -3 -6 -6z"/>
<path d="M328 503 c12 -2 30 -2 40 0 9 3 -1 5 -23 4 -22 0 -30 -2 -17 -4z"/>
<path d="M323 483 c9 -2 25 -2 35 0 9 3 1 5 -18 5 -19 0 -27 -2 -17 -5z"/>
<path d="M293 463 c15 -2 37 -2 50 0 12 2 0 4 -28 4 -27 0 -38 -2 -22 -4z"/>
<path d="M323 443 c9 -2 23 -2 30 0 6 3 -1 5 -18 5 -16 0 -22 -2 -12 -5z"/>
<path d="M290 421 c44 -5 57 -8 40 -12 -23 -6 -22 -6 7 -8 25 -1 31 2 27 14
-5 12 -22 15 -73 13 l-66 -1 65 -6z"/>
<path d="M278 403 c7 -3 16 -2 19 1 4 3 -2 6 -13 5 -11 0 -14 -3 -6 -6z"/>
</g>
</svg>
