<svg viewBox="0 0 32 32" fill="none" xmlns="http://www.w3.org/2000/svg" id="Office-Building-Flat--Streamline-Fluent-Emoji" height="32" width="32"><desc>Office Building Flat Streamline Emoji: https://streamlinehq.com</desc><path d="M2 30h4.0317l9.9453 -2.7752L25.9222 30H30V9.3C30 8.03 28.97 7 27.7 7H4.3C3.03 7 2 8.03 2 9.3V30Z" fill="#9b9b9b" stroke-width="1"></path><path d="M27 14h-1c-0.55 0 -1 -0.45 -1 -1v-1c0 -0.55 0.45 -1 1 -1h1c0.55 0 1 0.45 1 1v1c0 0.56 -0.45 1 -1 1Zm1 4v-1c0 -0.55 -0.45 -1 -1 -1h-1c-0.55 0 -1 0.45 -1 1v1c0 0.55 0.45 1 1 1h1c0.55 0 1 -0.44 1 -1Zm0 5v-1c0 -0.55 -0.45 -1 -1 -1h-1c-0.55 0 -1 0.45 -1 1v1c0 0.55 0.45 1 1 1h1c0.55 0 1 -0.44 1 -1Z" fill="#83cbff" stroke-width="1"></path><path d="M7 22v1c0 0.55 -0.45 1 -1 1H5c-0.55 0 -1 -0.45 -1 -1v-1c0 -0.55 0.45 -1 1 -1h1c0.55 0 1 0.45 1 1ZM6 11H5c-0.55 0 -1 0.45 -1 1v1c0 0.55 0.45 1 1 1h1c0.55 0 1 -0.45 1 -1v-1c0 -0.55 -0.45 -1 -1 -1Zm0 5H5c-0.55 0 -1 0.45 -1 1v1c0 0.55 0.45 1 1 1h1c0.55 0 1 -0.45 1 -1v-1c0 -0.55 -0.45 -1 -1 -1Z" fill="#83cbff" stroke-width="1"></path><path d="M26 30h-7.0133l-3.0156 -1.7298L12.9556 30H6V4.46C6 3.1 7.1 2 8.46 2h15.08C24.9 2 26 3.1 26 4.46V30Z" fill="#d3d3d3" stroke-width="1"></path><path d="M19 30h-6v-3.75c0 -0.69 0.56 -1.25 1.25 -1.25h3.5c0.69 0 1.26 0.56 1.26 1.26V30H19Z" fill="#1c1c1c" stroke-width="1"></path><path d="M14.5 18h-3c-0.27 0 -0.5 -0.22 -0.5 -0.5v-2.01c0 -0.27 0.22 -0.5 0.5 -0.5h3.01c0.27 0 0.5 0.22 0.5 0.5v2.01c-0.01 0.28 -0.23 0.5 -0.51 0.5Zm6.5 -0.49V15.5c0 -0.27 -0.22 -0.5 -0.5 -0.5h-3c-0.27 0 -0.5 0.22 -0.5 0.5v2.01c0 0.27 0.22 0.5 0.5 0.5h3.01c0.27 -0.01 0.49 -0.23 0.49 -0.5Zm-6 5V20.5c0 -0.27 -0.22 -0.5 -0.5 -0.5h-3c-0.27 0 -0.5 0.22 -0.5 0.5v2.01c0 0.27 0.22 0.5 0.5 0.5h3.01c0.27 -0.01 0.49 -0.23 0.49 -0.5Zm6 0V20.5c0 -0.27 -0.22 -0.5 -0.5 -0.5h-3c-0.27 0 -0.5 0.22 -0.5 0.5v2.01c0 0.27 0.22 0.5 0.5 0.5h3.01c0.27 -0.01 0.49 -0.23 0.49 -0.5ZM15 7.50999V5.5c0 -0.27 -0.22 -0.5 -0.5 -0.5h-3c-0.27 0 -0.5 0.22 -0.5 0.5v2.00999c0 0.27 0.22 0.5 0.5 0.5h3.01c0.27 -0.01 0.49 -0.23 0.49 -0.5Zm6 0V5.5c0 -0.27 -0.22 -0.5 -0.5 -0.5h-3c-0.27 0 -0.5 0.22 -0.5 0.5v2.00999c0 0.27 0.22 0.5 0.5 0.5h3.01c0.27 -0.01 0.49 -0.23 0.49 -0.5ZM15 12.51V10.5c0 -0.27 -0.22 -0.5 -0.5 -0.5h-3c-0.27 0 -0.5 0.22 -0.5 0.5v2.01c0 0.27 0.22 0.5 0.5 0.5h3.01c0.27 -0.01 0.49 -0.23 0.49 -0.5Zm6 0V10.5c0 -0.27 -0.22 -0.5 -0.5 -0.5h-3c-0.27 0 -0.5 0.22 -0.5 0.5v2.01c0 0.27 0.22 0.5 0.5 0.5h3.01c0.27 -0.01 0.49 -0.23 0.49 -0.5Z" fill="#83cbff" stroke-width="1"></path></svg>