<svg viewBox="0 0 32 32" fill="none" xmlns="http://www.w3.org/2000/svg" id="Page-Facing-Up-Flat--Streamline-Fluent-Emoji" height="32" width="32"><desc>Page Facing Up Flat Streamline Emoji: https://streamlinehq.com</desc><path d="M20.3432 2.29289C20.1556 2.10536 19.9013 2 19.6361 2H7c-1.10457 0 -2 0.89543 -2 2v24c0 1.1046 0.89543 2 2 2h18c1.1046 0 2 -0.8954 2 -2V9.36394c0 -0.26522 -0.1054 -0.51957 -0.2929 -0.70711l-6.3639 -6.36394Z" fill="#b4acbc" stroke-width="1"></path><path d="M19.6821 3.00001 7 3c-0.55228 0 -1 0.44772 -1 1v24c0 0.5523 0.44772 1 1 1l18 0c0.5523 0 1 -0.4477 1 -1V9.45333l-6.3179 -6.45332Z" fill="#f3eef8" stroke-width="1"></path><path d="M9.5 12h13c0.2761 0 0.5 0.2239 0.5 0.5s-0.2239 0.5 -0.5 0.5h-13c-0.27614 0 -0.5 -0.2239 -0.5 -0.5s0.22386 -0.5 0.5 -0.5Zm0 3c-0.27614 0 -0.5 0.2239 -0.5 0.5s0.22386 0.5 0.5 0.5h13c0.2761 0 0.5 -0.2239 0.5 -0.5s-0.2239 -0.5 -0.5 -0.5h-13ZM9 18.5c0 -0.2761 0.22386 -0.5 0.5 -0.5h13c0.2761 0 0.5 0.2239 0.5 0.5s-0.2239 0.5 -0.5 0.5h-13c-0.27614 0 -0.5 -0.2239 -0.5 -0.5Zm0.5 2.5c-0.27614 0 -0.5 0.2239 -0.5 0.5s0.22386 0.5 0.5 0.5h8c0.2761 0 0.5 -0.2239 0.5 -0.5s-0.2239 -0.5 -0.5 -0.5h-8Z" fill="#998ea4" stroke-width="1"></path><path d="M26 9.45325h-4.6108c-0.9428 0 -1.7071 -0.76429 -1.7071 -1.70711V3L26 9.45325Z" fill="#cdc4d6" stroke-width="1"></path></svg>