<svg viewBox="0 0 32 32" fill="none" xmlns="http://www.w3.org/2000/svg" id="Telephone-Receiver-Flat--Streamline-Fluent-Emoji" height="32" width="32"><desc>Telephone Receiver Flat Streamline Emoji: https://streamlinehq.com</desc><path d="M29.72 25.8394 25.1 23.5l-2.51 -4.7906c-0.31 -0.31 -0.8 -0.37 -1.18 -0.14 -1.27 0.77 -2.25 1.99 -2.7 3.43 -0.23 0.72 -1.07 1.05 -1.72 0.66l-0.01 -0.01 -0.01 -0.01c-3.12 -1.87 -5.74 -4.49 -7.61 -7.61 0 -0.01 -0.01 -0.02 -0.01 -0.02 -0.4 -0.65 -0.07 -1.49 0.65 -1.72 1.45 -0.45 2.67 -1.43 3.43 -2.7 0.23 -0.38 0.17 -0.85999 -0.14 -1.17999L8.5 7 6.16 2.27941c-0.31 -0.31 -0.8 -0.37 -1.18 -0.14 -1.72 1.03 -2.88 2.88 -2.97 5.01v0.01c-0.01 0.1 -0.01 0.2 -0.01 0.3 0 0.14 0.01 0.27 0.02 0.4 0.12 3.95999 1.25 7.81999 3.29 11.21999 1.87 3.12 4.49 5.74 7.61 7.61l0.01 0.01c3.44 2.07 7.36 3.2 11.37 3.29 0.08 0 0.16 0.01 0.24 0.01l0.13 0 0.17 0h0.26v-0.02c2.02 -0.17 3.77 -1.31 4.77 -2.96 0.22 -0.38 0.16 -0.87 -0.15 -1.18Z" fill="#f8312f" stroke-width="1"></path><path d="M13.4401 10.5894c-0.38 0.63 -0.87 1.18 -1.44 1.64L3.34009 3.56941c0.46 -0.57 1.01 -1.05 1.64 -1.43 0.38 -0.23 0.87 -0.17 1.18 0.14l7.14001 7.13c0.31 0.32 0.37 0.79999 0.14 1.17999Zm7.96 7.9801c0.38 -0.23 0.87 -0.17 1.18 0.14l7.13 7.15c0.32 0.31 0.38 0.79 0.15 1.17 -0.38 0.63 -0.87 1.18 -1.44 1.64l-8.66 -8.66c0.46 -0.57 1.01 -1.06 1.64 -1.44Z" fill="#bb1d80" stroke-width="1"></path></svg>