<svg viewBox="0 0 32 32" fill="none" xmlns="http://www.w3.org/2000/svg" id="Warning-Flat--Streamline-Fluent-Emoji" height="32" width="32"><desc>Warning Flat Streamline Emoji: https://streamlinehq.com</desc><path d="m14.839 5.6675 -12.66001 21.93c-0.51 0.89 0.13 2.01 1.16 2.01H28.659c1.03 0 1.67 -1.11 1.16 -2.01l-12.66 -21.93c-0.52 -0.89 -1.8 -0.89 -2.32 0Z" fill="#ffb02e" stroke-width="1"></path><path d="M14.599 21.4975c0 0.77 0.62 1.4 1.4 1.4 0.78 0 1.4 -0.63 1.4 -1.41v-9.16c0 -0.77 -0.62 -1.4 -1.4 -1.4 -0.77 0 -1.4 0.62 -1.4 1.4v9.17Z" fill="#000000" stroke-width="1"></path><path d="M17.399 25.4775c0 0.7732 -0.6268 1.4 -1.4 1.4 -0.7732 0 -1.4 -0.6268 -1.4 -1.4 0 -0.7732 0.6268 -1.4 1.4 -1.4 0.7732 0 1.4 0.6268 1.4 1.4Z" fill="#000000" stroke-width="1"></path></svg>