<svg width="24" height="24" viewBox="0 0 24 24" fill="none" xmlns="http://www.w3.org/2000/svg">
<path d="M2.8331 18.2422C2.8331 18.2455 2.8331 18.2516 2.82935 18.26C2.83075 18.2544 2.83169 18.2483 2.8331 18.2422Z" fill="#FFB800"/>
<path d="M13.6077 2C15.9246 2 18.0767 2.88649 19.675 4.48633C21.1843 6.00045 22.0078 7.98609 22.0012 10.0791V10.0801C21.9999 11.6344 21.5367 13.1532 20.6702 14.4434L20.635 14.4902V14.4912C20.6311 14.4964 20.6317 14.4959 20.6243 14.5059C20.6192 14.5127 20.6118 14.5226 20.6038 14.5342L20.5891 14.5547L20.5764 14.5771L20.5754 14.5791C20.5476 14.6264 20.5228 14.6755 20.5002 14.7256L20.426 14.8916L20.4749 15.0664L21.2131 17.6885L21.2151 17.6973C21.234 17.7601 21.2436 17.8251 21.2454 17.8906C21.245 17.9714 21.2303 18.0513 21.1995 18.126C21.1681 18.2018 21.1217 18.271 21.0637 18.3291C21.0056 18.3872 20.9365 18.4334 20.8606 18.4648C20.786 18.4957 20.7059 18.5112 20.6252 18.5117C20.5344 18.5091 20.4447 18.4906 20.3606 18.4561L20.3489 18.4512L20.3381 18.4473L17.6819 17.5059L17.676 17.5039C17.5872 17.4675 17.4939 17.4442 17.3987 17.4355L17.3059 17.4316C17.188 17.4318 17.0705 17.4527 16.9602 17.4941C16.8986 17.5174 16.3334 17.7302 15.7454 17.8916C15.4131 17.9828 14.3182 18.2617 13.467 18.2617C11.2314 18.2617 9.14631 17.4028 7.59106 15.8467L7.59009 15.8457C6.83078 15.091 6.22862 14.193 5.8186 13.2041C5.40859 12.2151 5.19883 11.1546 5.20142 10.084V10.083C5.2014 9.52661 5.26127 8.97129 5.38013 8.42773V8.42676C5.76697 6.6393 6.79292 5.00685 8.27368 3.83789C9.70004 2.71947 11.4404 2.08083 13.2454 2.00684L13.6077 2Z" fill="#FFB800" stroke="#FFB800"/>
<path d="M3.32324 10.6416C3.37046 10.6596 3.41168 10.6909 3.44043 10.7324C3.4693 10.7742 3.48437 10.8242 3.48438 10.875V10.8965C3.48465 10.9052 3.4856 10.916 3.48633 10.9287C3.48778 10.9539 3.49056 10.9886 3.49512 11.0361C3.50427 11.1314 3.52115 11.2823 3.55469 11.5156L3.55566 11.5166C3.86098 13.6264 4.84301 15.5798 6.35449 17.083C8.05331 18.7846 10.3104 19.8132 12.709 19.9805V19.9814C12.8188 19.9896 13.0258 19.9956 13.1201 20.001C13.2522 20.0085 13.3597 20.021 13.4463 20.0439L13.4561 20.0459C13.4892 20.0539 13.5201 20.0698 13.5469 20.0908C13.5603 20.1014 13.5732 20.1129 13.584 20.126L13.6113 20.1689C13.6273 20.2031 13.6342 20.2409 13.6299 20.2783C13.6253 20.3168 13.6085 20.3529 13.584 20.3828C13.5291 20.4452 13.4392 20.5102 13.3027 20.5791C13.236 20.6128 13.1659 20.6443 13.0908 20.6768C13.021 20.7069 12.9355 20.7421 12.8623 20.7764V20.7773C11.8301 21.2615 10.7036 21.5118 9.56348 21.5107C8.65452 21.5107 7.68515 21.3281 6.74805 20.9795H6.74707C6.5474 20.9046 6.32737 20.9048 6.12793 20.9805L6.125 20.9814L3.61719 21.9492L3.60547 21.9541C3.53265 21.9843 3.45384 22.0001 3.375 22C3.23054 21.9998 3.08969 21.9502 2.97656 21.8604L2.96777 21.8525C2.88352 21.7806 2.81971 21.6876 2.7832 21.583C2.74661 21.4781 2.73928 21.3649 2.76074 21.2559V21.2549C2.87764 20.6488 3.10152 19.4827 3.22949 18.8213L3.23242 18.8057L3.23438 18.79C3.24778 18.686 3.26537 18.5451 3.24121 18.3916C3.21541 18.228 3.15008 18.0905 3.07227 17.9609L3.06836 17.9551L2.85254 17.583C2.37699 16.7026 2.09195 15.7297 2.01855 14.7285C1.93469 13.5841 2.13006 12.4364 2.58691 11.3838V11.3828C2.65089 11.2348 2.7596 11.0701 2.86426 10.9316C2.91445 10.8653 2.9597 10.8098 2.99219 10.7715C3.00838 10.7524 3.02197 10.7379 3.03027 10.7285C3.03434 10.7239 3.03734 10.7207 3.03906 10.7188L3.04004 10.7168L3.04688 10.71C3.08037 10.672 3.12471 10.6451 3.17383 10.6328C3.22311 10.6206 3.27574 10.6237 3.32324 10.6416Z" fill="#FFB800" stroke="#FFB800"/>
</svg>
